<svg width="54" height="54" viewBox="0 0 54 54" fill="none" xmlns="http://www.w3.org/2000/svg">
<mask id="mask0_2515_11851" style="mask-type:alpha" maskUnits="userSpaceOnUse" x="0" y="0" width="54" height="54">
<rect width="54" height="54" fill="#D9D9D9"/>
</mask>
<g mask="url(#mask0_2515_11851)">
<path d="M21.2341 11.0909C21.2341 17.2386 16.2909 22.7614 13.7341 26.6136C11.7664 29.5672 10.8168 33.0824 11.0295 36.625C11.4727 44.7841 17.1545 52 27.3818 52C37.6091 52 43.7568 45.0909 43.7568 35.6591C43.7642 32.3809 42.7819 29.1768 40.9386 26.4659C38.325 22.625 33.5295 17.2386 33.5295 11.0909" fill="#BFBFBF"/>
<path d="M29.3365 11.0907L30.791 28.9657C30.8184 29.3936 30.976 29.8028 31.2426 30.1386C31.5093 30.4744 31.8722 30.7206 32.2827 30.8443C32.6932 30.9679 33.1318 30.9631 33.5395 30.8304C33.9472 30.6978 34.3046 30.4436 34.5638 30.1021C34.8114 29.7901 34.9654 29.4142 35.0077 29.0181C35.0499 28.622 34.9788 28.2221 34.8026 27.8648C34.6264 27.5076 34.3523 27.2078 34.0122 27.0003C33.6722 26.7929 33.2802 26.6863 32.882 26.693H21.8138C21.4155 26.6863 21.0235 26.7929 20.6835 27.0003C20.3435 27.2078 20.0694 27.5076 19.8931 27.8648C19.7169 28.2221 19.6458 28.622 19.6881 29.0181C19.7303 29.4142 19.8843 29.7901 20.1319 30.1021C20.3911 30.4436 20.7485 30.6978 21.1562 30.8304C21.5639 30.9631 22.0025 30.9679 22.413 30.8443C22.8235 30.7206 23.1865 30.4744 23.4531 30.1386C23.7197 29.8028 23.8773 29.3936 23.9047 28.9657L25.4274 11.0907" stroke="#FF0000" stroke-width="1.81818"/>
<path d="M21.6999 12L33.0636 12C34.9464 12 36.4727 10.3211 36.4727 8.25V5.75C36.4727 3.67893 34.9464 2 33.0636 2L21.6999 2C19.8171 2 18.2908 3.67893 18.2908 5.75V8.25C18.2908 10.3211 19.8171 12 21.6999 12Z" fill="black"/>
</g>
</svg>
