<svg width="54" height="54" viewBox="0 0 54 54" fill="none" xmlns="http://www.w3.org/2000/svg">
<path d="M27.418 44.4932C31.8119 44.4241 36.146 42.5864 39.2988 39.5322L39.5996 39.2324L39.6055 39.2275C42.9614 35.7091 45.0462 31.1585 44.9932 26.207V26.1982C44.8603 21.4909 43.1619 16.8671 39.6777 13.5508L39.6729 13.5449L39.3379 13.9082L39.6719 13.5449C39.5491 13.4316 39.4297 13.3209 39.3105 13.2109C38.9601 12.8749 38.6042 12.5427 38.2354 12.2178L38.2246 12.208C34.3703 9.00374 29.6323 7.81785 24.7285 8.17969L24.7051 8.18164C20.364 8.71043 16.0824 10.819 13.1973 14.167L13.1914 14.1738C13.0811 14.3067 12.9742 14.4355 12.8672 14.5645C9.94378 18.0346 8.40003 22.3736 8.5127 26.9248V26.9365C8.52061 27.097 8.52845 27.2535 8.53613 27.4092C8.72817 31.357 10.3904 35.3478 13.0117 38.2979L13.0234 38.3096C16.997 42.4913 21.6643 44.5248 27.4131 44.4932H27.418Z" stroke="#BFBFBF" stroke-width="0.987067"/>
<path d="M36.2297 39.401C36.6188 39.0849 36.9987 38.7605 37.3774 38.4322C37.5273 38.3183 37.6772 38.2043 37.8317 38.0869C38.4853 37.4902 39.017 36.8047 39.558 36.1062C39.6912 35.9353 39.6912 35.9353 39.8272 35.7609C41.8463 33.0318 42.8178 29.7849 42.8017 26.4116C42.8008 26.2319 42.8 26.0523 42.7992 25.8672C42.7416 21.5241 40.9461 17.8154 37.9862 14.6999C34.8288 11.6669 30.6325 10.1652 26.2858 10.2076C21.7459 10.3943 17.822 12.2995 14.6929 15.5603C12.8808 17.5378 11.7612 20.0248 11.0648 22.5865C11.0305 22.7113 10.9962 22.8361 10.9609 22.9647C10.0331 26.9062 10.8971 31.2877 12.9754 34.7164C15.4394 38.6056 18.929 40.9502 23.3579 42.1012C27.7137 43.0664 32.6528 42.0915 36.2297 39.401Z" fill="#BFBFBF"/>
<path d="M27.3467 33.9256C27.6375 33.6348 27.6375 33.6348 27.6705 33.2015C27.669 33.0203 27.6674 32.8391 27.6659 32.6524C27.6655 32.556 27.665 32.4596 27.6646 32.3603C27.663 32.0522 27.6593 31.7441 27.6556 31.436C27.6542 31.2273 27.6529 31.0185 27.6517 30.8097C27.6485 30.2976 27.6434 29.7856 27.6375 29.2736C27.7517 29.2532 27.8659 29.2328 27.9835 29.2118C28.7356 29.0468 29.2328 28.4747 29.6545 27.8562C30.0524 26.7068 30.0501 25.7265 29.5273 24.6217C29.0761 23.8276 28.3311 23.4641 27.4921 23.1679C26.5402 22.9837 25.7558 23.1846 24.9146 23.6483C24.2132 24.1723 23.7297 24.9224 23.567 25.7846C23.4729 27.0084 23.8468 27.8479 24.6147 28.7728C24.9613 29.0521 25.3261 29.1408 25.7476 29.2736C25.7442 29.4463 25.7442 29.4463 25.7407 29.6224C25.7316 30.1452 25.7259 30.6679 25.7204 31.1907C25.7167 31.3718 25.713 31.553 25.7093 31.7396C25.7079 31.9143 25.7065 32.0891 25.705 32.2691C25.7027 32.4297 25.7005 32.5904 25.6981 32.7559C25.7539 33.2552 25.886 33.5248 26.1837 33.9256C26.6064 34.1369 26.8955 34.029 27.3467 33.9256ZM25.7476 27.1475C25.4229 26.688 25.4229 26.688 25.4387 26.2117C25.6485 25.6639 25.8513 25.4006 26.3291 25.0578C26.9117 25.0476 27.2219 25.1112 27.692 25.4576C27.964 25.8342 28.0622 26.0464 28.0736 26.5115C27.8379 27.0183 27.6717 27.2156 27.2013 27.5291C26.5116 27.6313 26.2807 27.6139 25.7476 27.1475Z" fill="#5E5E5E"/>
<path d="M22.6973 18.9529C23.0023 18.4954 23.0364 18.3341 22.9393 17.8064C22.733 17.1501 22.4159 16.5694 21.9705 16.0455C21.4056 15.8409 21.1506 15.819 20.5985 16.0455C20.3403 16.376 20.2637 16.6161 20.2845 17.0369C20.4799 17.7496 20.9444 18.3716 21.389 18.9529C21.8467 19.1818 22.2096 19.0574 22.6973 18.9529Z" fill="#5E5E5E"/>
<path d="M31.6088 19.1699C32.3712 18.8598 32.6019 18.3686 32.9797 17.6571C33.2236 17.0571 33.2516 16.789 33.0171 16.1898C32.581 15.899 32.581 15.899 32.0995 15.8627C31.3813 16.1061 31.2085 16.4614 30.8615 17.1142C30.6351 17.6245 30.5234 17.9552 30.5458 18.5157C30.8463 19.0166 31.0333 19.0831 31.6088 19.1699Z" fill="#5E5E5E"/>
<path d="M19.2056 22.4398C19.5518 21.9205 19.6161 21.7422 19.4963 21.1315C18.8724 20.5061 18.1169 20.0069 17.234 19.914C16.7342 19.9685 16.7342 19.9685 16.4435 20.2047C16.2448 20.6766 16.306 20.9324 16.4435 21.4222C16.7604 21.7249 16.7604 21.7249 17.1522 21.9765C17.2807 22.0614 17.4093 22.1463 17.5417 22.2337C18.1546 22.5891 18.5241 22.6138 19.2056 22.4398Z" fill="#5E5E5E"/>
<path d="M17.3382 32.791C18.0805 32.6264 18.7456 32.1865 19.3553 31.7461C19.5587 31.3393 19.5374 31.0331 19.5006 30.5832C19.3462 30.3106 19.3462 30.3106 19.0645 30.147C18.1381 29.954 17.555 30.3793 16.776 30.8569C16.4478 31.1646 16.4478 31.1646 16.3149 31.6093C16.3024 32.0369 16.3024 32.0369 16.5205 32.4639C16.8839 32.7638 16.8839 32.7638 17.3382 32.791Z" fill="#5E5E5E"/>
<path d="M35.4907 22.4417C36.1994 22.1059 36.8018 21.8106 37.2079 21.1243C37.2352 20.6972 37.2352 20.6972 37.0989 20.2793C36.7991 19.9703 36.7991 19.9703 36.3539 19.8704C35.4631 20.0259 34.6772 20.4932 34.037 21.1333C33.9825 21.6331 33.9825 21.6331 34.037 22.151C34.4777 22.6934 34.8567 22.6413 35.4907 22.4417Z" fill="#5E5E5E"/>
<path d="M36.796 32.6178C37.0777 32.3634 37.0777 32.3634 37.2321 32.0363C37.2207 31.5808 37.1323 31.3672 36.8505 31.0096C36.2347 30.5072 35.7443 30.1764 34.9425 30.0828C34.47 30.1464 34.47 30.1464 34.1884 30.3009C33.9221 30.7863 33.9235 31.0572 34.0339 31.6002C34.4304 31.9636 34.8694 32.2195 35.3423 32.4724C35.4433 32.5288 35.5443 32.5852 35.6483 32.6433C36.0738 32.8284 36.3597 32.7477 36.796 32.6178Z" fill="#5E5E5E"/>
<path d="M36.9297 27.2679C37.0357 27.2697 37.1417 27.2715 37.2509 27.2733C37.8069 27.2749 38.0645 27.2655 38.5379 26.9499C38.6833 26.5411 38.6833 26.5411 38.6833 26.0777C38.4475 25.6438 38.3906 25.5432 37.9564 25.3508C36.2822 25.1415 36.2822 25.1415 35.5754 25.5513C35.2615 25.8652 35.2158 26.0736 35.1943 26.5138C35.5092 27.3857 36.1077 27.2672 36.9297 27.2679Z" fill="#5E5E5E"/>
<path d="M32.2058 36.7363C32.7237 36.6909 32.7237 36.6909 33.0054 36.5274C33.2513 36.0934 33.2415 35.8818 33.1598 35.3825C32.8425 34.7509 32.4985 34.1398 31.9968 33.6381C31.117 33.5581 31.117 33.5581 30.6976 33.8016C30.4517 34.2355 30.4614 34.4472 30.5431 34.9464C31.4056 36.6636 31.4056 36.6636 32.2058 36.7363Z" fill="#5E5E5E"/>
<path d="M21.8253 36.6889C22.3749 36.0861 22.9541 35.3461 23.0247 34.5174C22.9883 34.0722 22.9883 34.0722 22.8339 33.7996C22.3581 33.5233 22.0731 33.5356 21.5346 33.636C20.933 34.2144 20.4116 34.9882 20.3262 35.8257C20.3716 36.2528 20.3716 36.2528 20.5261 36.5253C21.0171 36.8105 21.2679 36.8097 21.8253 36.6889Z" fill="#5E5E5E"/>
<path d="M27.2034 17.7925C27.4456 17.6076 27.4456 17.6076 27.6395 17.3564C27.6828 16.9315 27.7004 16.5447 27.694 16.1207C27.6957 16.0084 27.6974 15.8962 27.6991 15.7805C27.6948 14.9557 27.6948 14.9557 27.4445 14.636C27.2034 14.4489 27.2034 14.4489 26.7763 14.3762C26.3311 14.4489 26.3311 14.4489 26.016 14.7572C25.6969 15.2587 25.6801 15.5406 25.6951 16.1298C25.697 16.2919 25.6989 16.454 25.7008 16.621C25.7473 17.044 25.807 17.2954 26.0404 17.6471C26.4472 17.8505 26.7534 17.8292 27.2034 17.7925Z" fill="#5E5E5E"/>
<path d="M16.1651 27.2872C16.2786 27.2867 16.392 27.2863 16.5089 27.2858C16.6783 27.2893 16.6783 27.2893 16.8511 27.2929C17.6835 27.2936 17.6835 27.2936 18.0036 27.0508C18.3155 26.6378 18.2519 26.2829 18.1898 25.7866C17.8466 25.4233 17.6301 25.3536 17.1319 25.2824C15.5172 25.2686 15.5172 25.2686 15.0734 25.6594C14.8462 26.0774 14.8462 26.0774 14.8553 26.5408C15.1055 27.2912 15.4207 27.2802 16.1651 27.2872Z" fill="#5E5E5E"/>
<path d="M26.4722 38.2227C27.3161 38.1738 27.3161 38.1738 27.6392 37.8507C27.7074 37.4208 27.693 36.9862 27.6937 36.5514C27.6973 36.4316 27.7008 36.3117 27.7045 36.1883C27.7088 35.3125 27.7088 35.3125 27.3729 34.9336C26.9138 34.7359 26.6546 34.7835 26.1854 34.9432C25.7798 35.4778 25.6897 35.8778 25.6948 36.5423C25.6937 36.6893 25.6926 36.8362 25.6914 36.9875C25.7662 37.5388 25.8899 38.0578 26.4722 38.2227Z" fill="#5E5E5E"/>
</svg>
