<svg width="54" height="54" viewBox="0 0 54 54" fill="none" xmlns="http://www.w3.org/2000/svg">
<path d="M30.1509 48.3906H23.6582C23.1059 48.3906 22.6582 48.8383 22.6582 49.3906V51C22.6582 51.5523 23.1059 52 23.6582 52H30.1509C30.7032 52 31.1509 51.5523 31.1509 51V49.3906C31.1509 48.8383 30.7032 48.3906 30.1509 48.3906Z" fill="#E4E4E4"/>
<path d="M40.7075 10.3866H13V6.35251C13 3.91086 14.9109 2 17.3525 2H36.4611C38.7966 2 40.7075 3.91086 40.7075 6.24636V10.3866Z" fill="#787878"/>
<path d="M40.7075 8.47656H13V31.8315H40.7075V8.47656Z" fill="#787878"/>
<path d="M37.5199 31.7246H16.2881V36.0771H37.5199V31.7246Z" fill="#787878"/>
<path d="M38.4786 48.3913H15.336C14.3805 48.3913 13.5312 47.542 13.5312 46.5866V37.7754C13.5312 36.82 14.3805 35.9707 15.336 35.9707H38.4786C39.434 35.9707 40.2833 36.82 40.2833 37.7754V46.5866C40.2833 47.542 39.434 48.3913 38.4786 48.3913Z" fill="#787878"/>
<path d="M38.1583 30.1345H15.4403C15.2279 30.1345 15.0156 29.9221 15.0156 29.7098V10.1766C15.0156 9.96427 15.2279 9.75195 15.4403 9.75195H38.1583C38.3706 9.75195 38.5829 9.96427 38.5829 10.1766V29.7098C38.4767 30.0283 38.3706 30.1345 38.1583 30.1345Z" fill="url(#paint0_linear_2515_12005)"/>
<path d="M38.1583 30.1345H15.4403C15.2279 30.1345 15.0156 29.9221 15.0156 29.7098V10.1766C15.0156 9.96427 15.2279 9.75195 15.4403 9.75195H38.1583C38.3706 9.75195 38.5829 9.96427 38.5829 10.1766V29.7098C38.4767 30.0283 38.3706 30.1345 38.1583 30.1345Z" fill="#787878"/>
<path d="M36.4609 28.2203C36.0363 28.2203 35.7178 27.9018 35.7178 27.4771V12.5087C35.7178 12.0841 36.0363 11.7656 36.4609 11.7656C36.8855 11.7656 37.204 12.0841 37.204 12.5087V27.4771C37.0978 27.9018 36.7794 28.2203 36.4609 28.2203Z" fill="#E4E4E4"/>
<path d="M33.7001 28.2203C33.2755 28.2203 32.957 27.9018 32.957 27.4771V12.5087C32.957 12.0841 33.2755 11.7656 33.7001 11.7656C34.1248 11.7656 34.4433 12.0841 34.4433 12.5087V27.4771C34.3371 27.9018 34.0186 28.2203 33.7001 28.2203Z" fill="#E4E4E4"/>
<path d="M30.9404 28.2203C30.5157 28.2203 30.1973 27.9018 30.1973 27.4771V12.5087C30.1973 12.0841 30.5157 11.7656 30.9404 11.7656C31.365 11.7656 31.6835 12.0841 31.6835 12.5087V27.4771C31.5773 27.9018 31.2589 28.2203 30.9404 28.2203Z" fill="#E4E4E4"/>
<path d="M28.1806 28.2203C27.756 28.2203 27.4375 27.9018 27.4375 27.4771V12.5087C27.4375 12.0841 27.756 11.7656 28.1806 11.7656C28.6052 11.7656 28.9237 12.0841 28.9237 12.5087V27.4771C28.8176 27.9018 28.4991 28.2203 28.1806 28.2203Z" fill="#E4E4E4"/>
<path d="M25.4199 28.2203C24.9952 28.2203 24.6768 27.9018 24.6768 27.4771V12.5087C24.6768 12.0841 24.9952 11.7656 25.4199 11.7656C25.8445 11.7656 26.163 12.0841 26.163 12.5087V27.4771C26.0568 27.9018 25.7383 28.2203 25.4199 28.2203Z" fill="#E4E4E4"/>
<path d="M22.6601 28.2203C22.2355 28.2203 21.917 27.9018 21.917 27.4771V12.5087C21.917 12.0841 22.2355 11.7656 22.6601 11.7656C23.0847 11.7656 23.4032 12.0841 23.4032 12.5087V27.4771C23.2971 27.9018 22.9786 28.2203 22.6601 28.2203Z" fill="#E4E4E4"/>
<path d="M19.8994 28.2203C19.4747 28.2203 19.1562 27.9018 19.1562 27.4771V12.5087C19.1562 12.0841 19.4747 11.7656 19.8994 11.7656C20.324 11.7656 20.6425 12.0841 20.6425 12.5087V27.4771C20.5363 27.9018 20.2178 28.2203 19.8994 28.2203Z" fill="#E4E4E4"/>
<path d="M17.1396 28.2203C16.715 28.2203 16.3965 27.9018 16.3965 27.4771V12.5087C16.3965 12.0841 16.715 11.7656 17.1396 11.7656C17.5642 11.7656 17.8827 12.0841 17.8827 12.5087V27.4771C17.7766 27.9018 17.5642 28.2203 17.1396 28.2203Z" fill="#E4E4E4"/>
<defs>
<linearGradient id="paint0_linear_2515_12005" x1="15.0434" y1="20.0041" x2="38.4887" y2="20.0041" gradientUnits="userSpaceOnUse">
<stop stop-color="#BFBFBF"/>
<stop offset="0.5264" stop-color="#D9D9D9"/>
<stop offset="0.983" stop-color="#BFBFBF"/>
</linearGradient>
</defs>
</svg>
