<svg width="54" height="54" viewBox="0 0 54 54" fill="none" xmlns="http://www.w3.org/2000/svg">
<path d="M28.8538 2.00573C28.9262 2.00384 28.9987 2.00195 29.0733 2C29.4652 2.08393 29.691 2.29508 29.9134 2.62463C30.0523 2.85955 30.1838 3.09756 30.3138 3.3375C30.4167 3.52245 30.5198 3.70724 30.6231 3.8919C30.6776 3.98936 30.732 4.08682 30.7882 4.18724C31.0887 4.71618 31.4041 5.23612 31.7189 5.75669C32.2275 6.59955 32.7286 7.44522 33.2095 8.30417C33.2802 8.23311 33.3509 8.16204 33.4237 8.08883C35.4309 6.09007 37.6672 4.95312 40.5404 4.93197C43.1532 4.95291 45.3141 5.84408 47.2237 7.64821C49.2049 9.69429 49.8833 12.1471 49.8529 14.942C49.7883 17.367 48.6199 19.5351 46.8938 21.2065C45.4841 22.4563 43.7708 23.2556 41.9088 23.5524C42.1794 24.2159 42.4615 24.8708 42.7682 25.5184C44.1164 28.3747 45.4676 31.5953 45.6232 34.7931C45.6292 34.9084 45.6292 34.9084 45.6354 35.026C45.7366 39.0623 44.2122 43.2723 41.4751 46.2537C41.3412 46.3936 41.2074 46.5336 41.0718 46.6719C40.9237 46.8236 40.7785 46.9778 40.6332 47.1322C37.8664 50.0325 33.7868 51.8309 29.7873 51.932C27.7936 51.9696 25.9327 51.8646 24.0172 51.2754C23.3032 51.0586 22.8279 51.1001 22.1338 51.3425C19.8132 52.0898 17.0123 52.2314 14.638 51.6052C14.5086 51.575 14.3791 51.5449 14.2497 51.5147C11.7668 50.8963 9.58703 49.4909 7.79583 47.6954C7.71192 47.6126 7.628 47.5298 7.54154 47.4446C4.87736 44.6746 3.80628 41.0358 3.85511 37.2711C3.8793 36.4751 3.99383 35.745 4.22108 34.9834C4.27507 34.7997 4.32126 34.6136 4.36712 34.4277C5.04281 31.762 6.36889 29.2216 7.60034 26.778C7.65366 26.6718 7.70697 26.5655 7.7619 26.4561C8.40358 25.1837 9.10033 23.949 9.82519 22.7223C10.0842 22.2838 10.3352 21.8416 10.5816 21.3959C11.4602 19.8166 12.4324 18.2879 13.4038 16.7645C13.5759 16.4942 13.7471 16.2233 13.9183 15.9523C14.598 14.8798 15.2895 13.8159 15.9994 12.7631C16.0807 12.6426 16.1618 12.5219 16.2427 12.4011C16.3562 12.2319 16.4704 12.0633 16.5849 11.8948C16.6828 11.75 16.6828 11.75 16.7827 11.6022C17.3128 10.8962 17.3128 10.8962 17.7101 10.7703C18.0505 10.7643 18.3406 10.7594 18.6162 10.9762C19.1478 11.6148 19.6021 12.3019 20.0567 12.9959C20.1383 13.1195 20.22 13.2431 20.3017 13.3667C20.4996 13.6663 20.6968 13.9663 20.8937 14.2666C21.1969 13.896 21.4414 13.5197 21.6695 13.0998C22.0199 12.4664 22.3813 11.8406 22.7508 11.2182C23.217 10.4325 23.6807 9.64543 24.1421 8.85694C24.914 7.53817 25.6883 6.22089 26.4708 4.90839C26.5992 4.69287 26.7274 4.4772 26.8554 4.2614C27.0422 3.94683 27.23 3.63292 27.4181 3.31918C27.4741 3.22457 27.5301 3.12996 27.5877 3.03248C27.6401 2.94565 27.6925 2.85882 27.7465 2.76936C27.7918 2.69351 27.8372 2.61766 27.8839 2.53951C28.151 2.17555 28.4008 2.00651 28.8538 2.00573ZM28.811 5.07859C28.7046 5.24326 28.6033 5.41125 28.504 5.58029C28.4403 5.68826 28.3767 5.79622 28.311 5.90746C28.2415 6.02622 28.1719 6.14498 28.1024 6.26374C28.0307 6.38545 27.9591 6.50714 27.8874 6.62881C27.742 6.87554 27.5969 7.12237 27.4519 7.36929C27.2246 7.75618 26.996 8.14228 26.7673 8.52832C26.1946 9.49532 25.6262 10.4648 25.0586 11.4348C24.6682 12.1018 24.2767 12.7681 23.8818 13.4323C23.8466 13.4916 23.8114 13.5508 23.7752 13.6118C23.6084 13.8923 23.4414 14.1728 23.274 14.453C22.889 15.0999 22.5197 15.7533 22.1643 16.417C22.215 16.4955 22.215 16.4955 22.2667 16.5756C23.9577 19.2016 25.5545 21.8864 27.0516 24.6276C27.1066 24.728 27.1615 24.8285 27.2182 24.932C33.0011 35.5284 33.0011 35.5284 31.6456 41.0487C31.6267 41.1259 31.6078 41.203 31.5883 41.2824C31.0383 43.4417 30.0586 45.3142 28.6155 47.0112C28.5363 47.1048 28.457 47.1984 28.3754 47.2949C27.7965 47.9604 27.1668 48.5075 26.4621 49.0367C26.2483 49.2007 26.0599 49.3551 25.8787 49.5526C28.496 50.5916 32.0797 49.7988 34.578 48.7706C36.3245 47.9857 37.8004 46.9674 39.172 45.6428C39.2878 45.5345 39.2878 45.5345 39.406 45.424C42.0506 42.8906 43.4751 39.1716 43.5768 35.5452C43.607 32.2535 42.0917 29.0123 40.7359 26.0938C40.6567 25.9207 40.6567 25.9207 40.5758 25.7441C40.4189 25.4018 40.2601 25.0604 40.1006 24.7192C40.0524 24.6145 40.0043 24.5098 39.9548 24.4019C39.9091 24.3059 39.8635 24.2099 39.8165 24.111C39.7769 24.0264 39.7372 23.9419 39.6964 23.8548C39.471 23.5091 39.2173 23.4652 38.8253 23.3741C38.7596 23.3606 38.6939 23.3472 38.6263 23.3333C36.2615 22.8461 34.2135 21.5315 32.8359 19.5271C31.474 17.4236 30.9912 14.8494 31.4295 12.3797C31.5292 11.9204 31.638 11.4572 31.8411 11.0319C31.9879 10.6986 32.0745 10.4759 31.9613 10.1201C31.8211 9.85558 31.6655 9.60982 31.499 9.36104C31.3797 9.17184 31.2604 8.98258 31.1412 8.79328C31.0791 8.69678 31.017 8.60028 30.953 8.50085C30.6521 8.02722 30.3708 7.5424 30.0878 7.05792C29.9395 6.80628 29.7909 6.55487 29.6419 6.30364C29.5379 6.12815 29.4345 5.95235 29.3314 5.77636C29.2785 5.68671 29.2256 5.59706 29.1711 5.50469C29.0991 5.38217 29.0991 5.38217 29.0258 5.25718C28.9678 5.16878 28.9678 5.16878 28.9088 5.07859C28.8765 5.07859 28.8442 5.07859 28.811 5.07859ZM35.2622 9.18388C33.8375 10.6433 33.2789 12.5582 33.2836 14.5453C33.3035 16.1982 33.8934 17.6927 34.9689 18.9584C35.0415 19.0551 35.1141 19.1519 35.1889 19.2516C35.9521 20.1369 36.9525 20.6383 37.999 21.1088C38.0763 21.1442 38.1535 21.1796 38.2331 21.2161C39.9429 21.8871 41.9333 21.6223 43.5705 20.9133C45.4868 20.0469 46.7277 18.5317 47.4803 16.6125C47.5332 16.4783 47.5332 16.4783 47.5872 16.3414C48.1443 14.5824 47.8569 12.489 47.0282 10.8761C46.1059 9.19396 44.6336 7.90021 42.8042 7.29198C40.0336 6.49997 37.3511 7.19715 35.2622 9.18388Z" fill="#BFBFBF"/>
<path d="M24.6062 31.6656C25.2321 32.0748 25.6418 32.7198 25.8769 33.425C25.9541 34.5519 25.8967 35.3697 25.1805 36.2841C24.5874 36.9244 23.8309 37.2035 22.9751 37.2615C22.1259 37.2455 21.406 36.9416 20.7942 36.3574C20.0979 35.5822 19.9486 34.8365 19.9744 33.8156C20.009 33.2858 20.2044 32.8825 20.5009 32.4476C20.5594 32.3569 20.6178 32.2661 20.6781 32.1727C21.7291 31.1217 23.3155 30.9414 24.6062 31.6656ZM22.0648 33.816C21.9856 34.0947 21.9898 34.3186 22.0648 34.598C22.2989 34.9215 22.4662 35.0551 22.8407 35.1905C23.2387 35.1824 23.4221 35.0413 23.7265 34.7935C23.8851 34.4763 23.8928 34.1576 23.8243 33.816C23.5455 33.4974 23.36 33.3528 22.9445 33.2662C22.5291 33.3528 22.3436 33.4974 22.0648 33.816Z" fill="#787878"/>
<path d="M14.5383 37.8246C15.1777 38.2838 15.7617 38.8811 15.9067 39.6817C16.002 40.6853 15.9178 41.4773 15.3203 42.3209C14.7377 42.9811 14.1113 43.2856 13.2371 43.3838C12.3635 43.4309 11.6835 43.2413 11.0019 42.6866C10.303 42.0177 10.0048 41.3452 9.94238 40.3847C9.94732 39.5781 10.1975 38.9293 10.7163 38.3145C11.7326 37.3416 13.3165 37.025 14.5383 37.8246ZM12.3024 39.7001C12.0884 39.9833 11.9969 40.1113 11.9969 40.4637C12.121 40.8082 12.2351 41.004 12.5162 41.2395C12.8561 41.3739 13.019 41.3611 13.3654 41.2457C13.7178 40.9852 13.839 40.851 13.9091 40.4148C13.8462 40.0233 13.7408 39.8616 13.4631 39.584C13.033 39.3689 12.6771 39.4149 12.3024 39.7001Z" fill="#787878"/>
<path d="M15.6516 32.5064C15.7616 32.5023 15.7616 32.5023 15.8738 32.498C16.2896 32.5796 16.5369 32.8564 16.7771 33.1925C16.8349 33.2902 16.8926 33.3878 16.9521 33.4885C17.0179 33.5986 17.0838 33.7088 17.1516 33.8223C17.1859 33.8806 17.2202 33.9389 17.2555 33.999C17.4011 34.2465 17.5486 34.4928 17.6961 34.7392C17.7717 34.8656 17.8473 34.9921 17.9228 35.1187C18.2753 35.7092 18.639 36.2925 19.0055 36.8744C19.5504 37.7418 20.0869 38.6139 20.6166 39.4906C20.9464 40.0354 21.2852 40.5729 21.6348 41.1053C21.8198 41.4199 21.8849 41.6594 21.8706 42.0244C21.7488 42.3764 21.6406 42.5596 21.3513 42.7941C21.0376 42.9255 20.8397 42.9463 20.5022 42.9041C19.9504 42.6769 19.735 42.2164 19.4453 41.725C19.3327 41.5386 19.2201 41.3521 19.1074 41.1657C19.0482 41.0669 18.9891 40.9681 18.9281 40.8663C18.61 40.3374 18.2849 39.8128 17.9608 39.2875C17.8279 39.0714 17.6951 38.8553 17.5622 38.6392C17.2681 38.1612 16.9726 37.684 16.6765 37.2073C16.1948 36.4317 15.7182 35.6534 15.2484 34.8707C15.1982 34.7869 15.1479 34.7032 15.0961 34.617C14.5943 33.778 14.5943 33.778 14.6375 33.2273C14.8671 32.7462 15.109 32.5157 15.6516 32.5064Z" fill="#787878"/>
<path d="M44.3378 10.5128C44.8759 10.9252 45.4583 11.375 45.7203 12.019C45.7624 12.3433 45.7905 12.5864 45.6176 12.8743C45.3389 13.2164 45.1644 13.3669 44.7307 13.4363C44.1868 13.3661 43.9552 13.072 43.57 12.7032C42.4229 11.7177 41.3775 11.4358 39.8829 11.5086C38.8475 11.6095 38.0331 12.1996 37.3063 12.8991C36.8078 13.3709 36.8078 13.3709 36.3735 13.4608C35.9388 13.3642 35.7705 13.2121 35.4571 12.8987C35.3051 12.5948 35.3314 12.355 35.3594 12.019C35.973 10.8173 37.2758 10.0069 38.5178 9.5754C40.5096 8.9612 42.6528 9.32548 44.3378 10.5128Z" fill="#787878"/>
<path d="M42.3972 13.6812C42.5 13.7397 42.6028 13.7982 42.7087 13.8584C43.5435 14.5076 43.5435 14.5076 43.7656 14.9519C43.8025 15.4403 43.7747 15.733 43.4724 16.1249C43.1314 16.3522 42.9499 16.3834 42.5491 16.3788C42.0464 16.2611 41.6976 15.8742 41.322 15.5384C40.9131 15.3339 40.3988 15.3986 39.9536 15.4406C39.5951 15.6198 39.378 15.821 39.0922 16.1004C38.7333 16.3537 38.5376 16.3924 38.1082 16.3692C37.7733 16.2903 37.6152 16.0981 37.4122 15.8316C37.2528 15.5129 37.2688 15.3059 37.3144 14.9519C38.3936 13.3196 40.6715 12.6897 42.3972 13.6812Z" fill="#787878"/>
<path d="M41.0271 17.1996C41.3326 17.3829 41.3326 17.3829 41.5159 17.6884C41.6125 18.1797 41.5918 18.5393 41.3326 18.9713C40.9006 19.2305 40.541 19.2512 40.0497 19.1545C39.7442 18.9713 39.7442 18.9713 39.561 18.6658C39.4643 18.1745 39.485 17.8149 39.7442 17.3829C40.1763 17.1237 40.5359 17.103 41.0271 17.1996Z" fill="#787878"/>
</svg>
