<svg width="54" height="54" viewBox="0 0 54 54" fill="none" xmlns="http://www.w3.org/2000/svg">
<mask id="mask0_2515_11909" style="mask-type:alpha" maskUnits="userSpaceOnUse" x="0" y="0" width="54" height="54">
<rect width="54" height="54" fill="#D9D9D9"/>
</mask>
<g mask="url(#mask0_2515_11909)">
<path d="M2.38266 30.8805C2.3818 30.7869 2.38095 30.6933 2.38007 30.5969C2.37794 30.2907 2.37934 29.9845 2.38099 29.6783C2.38066 29.4636 2.38019 29.249 2.37958 29.0344C2.37886 28.5857 2.3799 28.1371 2.38218 27.6885C2.38496 27.1154 2.38336 26.5424 2.38044 25.9693C2.37868 25.5264 2.37924 25.0836 2.3805 24.6407C2.38083 24.4295 2.38044 24.2183 2.3793 24.0071C2.37805 23.7111 2.37996 23.4153 2.38266 23.1193C2.38118 22.9902 2.38118 22.9902 2.37967 22.8586C2.39166 22.1437 2.60443 21.483 3.12072 20.9689C3.90082 20.3194 4.77396 20.232 5.75711 20.2431C5.8573 20.242 5.95749 20.2408 6.06071 20.2397C6.84772 20.2427 7.58073 20.3505 8.22244 20.8396C8.28232 20.8833 8.34221 20.927 8.40391 20.972C8.58158 21.1562 8.58158 21.1562 8.71816 21.5111C8.80839 21.699 8.80839 21.699 8.97116 21.8379C9.39989 21.9405 9.82255 21.9332 10.2617 21.9292C10.3807 21.9308 10.4997 21.9324 10.6223 21.934C10.9161 21.9374 11.2096 21.9378 11.5034 21.9353C11.521 21.8736 11.5386 21.8119 11.5567 21.7484C12.7379 17.692 15.7227 14.3344 19.3822 12.3051C22.8423 10.4615 26.9377 9.80395 30.7877 10.6375C30.8635 10.6537 30.9393 10.6699 31.0174 10.6865C35.2465 11.6235 39.0431 14.2231 41.3944 17.87C42.1675 19.0965 42.9948 20.4942 43.2544 21.9353C43.6664 21.9416 44.078 21.9393 44.4901 21.9353C44.6068 21.9372 44.7235 21.9391 44.8437 21.941C45.4546 21.9541 45.4546 21.9541 45.9614 21.6695C46.0876 21.4654 46.0876 21.4654 46.1842 21.2497C46.3044 20.993 46.4621 20.8785 46.6997 20.7301C46.8033 20.6626 46.8033 20.6626 46.909 20.5939C47.595 20.2541 48.2345 20.2468 48.9885 20.2492C49.0896 20.2476 49.1907 20.246 49.2948 20.2444C50.2817 20.2438 51.111 20.4449 51.8252 21.1562C52.2482 21.7937 52.3838 22.3644 52.3752 23.1193C52.376 23.2129 52.3769 23.3064 52.3777 23.4028C52.3799 23.7091 52.3785 24.0152 52.3768 24.3215C52.3771 24.5362 52.3776 24.7508 52.3782 24.9654C52.379 25.4141 52.3779 25.8627 52.3756 26.3113C52.3729 26.8844 52.3745 27.4574 52.3774 28.0305C52.3791 28.4734 52.3786 28.9162 52.3773 29.359C52.377 29.5703 52.3774 29.7815 52.3785 29.9927C52.3798 30.2887 52.3779 30.5845 52.3752 30.8805C52.3761 30.9665 52.3771 31.0526 52.3781 31.1412C52.3662 31.8561 52.1534 32.5167 51.6371 33.0309C50.8455 33.69 49.955 33.7694 48.9581 33.7628C48.8541 33.7647 48.7501 33.7667 48.6429 33.7687C47.8204 33.7682 47.098 33.6095 46.4319 33.1054C46.1762 32.8436 46.1762 32.8436 46.0461 32.4921C45.9529 32.3025 45.9529 32.3025 45.7866 32.1619C45.358 32.0591 44.9353 32.0666 44.4962 32.0705C44.3771 32.069 44.2581 32.0674 44.1355 32.0658C43.8417 32.0623 43.5482 32.062 43.2544 32.0645C43.2373 32.1251 43.2202 32.1857 43.2026 32.2482C42.0277 36.3073 39.033 39.6665 35.3757 41.6947C31.9155 43.5383 27.8201 44.1958 23.9701 43.3623C23.8943 43.3461 23.8185 43.3299 23.7404 43.3133C19.3888 42.3492 15.6834 39.6787 13.2566 35.9603C12.5174 34.7936 11.7502 33.4343 11.5034 32.0645C11.0934 32.0553 10.6839 32.056 10.2738 32.0584C10.1579 32.0557 10.0421 32.053 9.92267 32.0502C9.29238 32.0414 9.29238 32.0414 8.7769 32.3519C8.62601 32.5827 8.62601 32.5827 8.5024 32.8252C8.34927 33.1076 8.16744 33.2284 7.88764 33.3793C7.80704 33.4245 7.72644 33.4697 7.64339 33.5163C7.06135 33.7852 6.46635 33.7416 5.83625 33.7445C5.72922 33.7465 5.62219 33.7485 5.51191 33.7506C4.60816 33.7549 3.83066 33.622 3.12072 33.0309C2.52167 32.4343 2.37333 31.6946 2.38266 30.8805ZM4.38426 31.7228C4.8215 32.0375 5.21487 31.9885 5.73885 31.9914C5.8268 31.9934 5.91475 31.9954 6.00536 31.9975C6.66202 32.0024 6.66202 32.0024 7.21805 31.6749C7.47737 31.3048 7.44093 30.8957 7.43959 30.462C7.44009 30.3792 7.44058 30.2963 7.4411 30.2109C7.44245 29.9371 7.44236 29.6633 7.44213 29.3895C7.44251 29.1991 7.44293 29.0086 7.4434 28.8182C7.44412 28.4191 7.4441 28.0199 7.44358 27.6208C7.44302 27.1095 7.44467 26.5981 7.44693 26.0868C7.44836 25.6935 7.44845 25.3002 7.44814 24.9069C7.44819 24.7184 7.4487 24.5299 7.44968 24.3414C7.45089 24.0777 7.45023 23.8141 7.4491 23.5504C7.44984 23.4726 7.45059 23.3948 7.45136 23.3147C7.44715 22.87 7.39663 22.5812 7.12065 22.2275C6.70531 21.9448 6.24732 22.0006 5.7632 22.0023C5.67613 22.0007 5.58907 21.9992 5.49936 21.9975C5.02133 21.9972 4.68021 22.0061 4.29618 22.3249C4.13543 22.6464 4.18267 23.0047 4.18155 23.3582C4.18091 23.445 4.18027 23.5318 4.17961 23.6212C4.17768 23.9092 4.17655 24.1971 4.17558 24.4851C4.17518 24.5833 4.17479 24.6815 4.17438 24.7827C4.17234 25.3022 4.17095 25.8217 4.17004 26.3413C4.16896 26.8786 4.16561 27.416 4.16174 27.9533C4.1592 28.3659 4.15838 28.7785 4.15803 29.1911C4.15756 29.3892 4.15642 29.5873 4.15462 29.7854C4.15226 30.0625 4.15234 30.3394 4.15301 30.6164C4.15177 30.6985 4.15052 30.7806 4.14923 30.8651C4.15244 31.2235 4.1631 31.4334 4.38426 31.7228ZM9.16596 30.3113C9.77662 30.3113 10.3873 30.3113 11.0165 30.3113C10.9843 30.0663 10.9522 29.8212 10.9191 29.5687C10.697 27.6158 10.7614 25.6336 11.0165 23.6884C10.4058 23.6884 9.79513 23.6884 9.16596 23.6884C9.16596 25.874 9.16596 28.0596 9.16596 30.3113ZM17.1524 37.9082C17.496 38.2202 17.853 38.5057 18.2237 38.7847C18.2741 38.8235 18.3245 38.8622 18.3765 38.9022C21.5273 41.3142 25.4858 42.3059 29.4178 41.8262C33.328 41.2604 36.9819 39.1186 39.3523 35.9521C41.7131 32.6926 42.7436 28.722 42.1708 24.7233C41.5523 20.9374 39.4472 17.3064 36.3393 15.0203C32.9711 12.6547 28.97 11.5746 24.8663 12.2466C21.0889 12.9424 17.4768 15.0815 15.2519 18.2493C11.0089 24.5022 11.7449 32.6009 17.1524 37.9082ZM43.7413 30.3113C44.352 30.3113 44.9627 30.3113 45.5919 30.3113C45.5919 28.1258 45.5919 25.9402 45.5919 23.6884C44.9812 23.6884 44.3705 23.6884 43.7413 23.6884C43.7735 23.9335 43.8056 24.1786 43.8387 24.4311C44.0608 26.384 43.9964 28.3662 43.7413 30.3113ZM47.6372 31.7723C48.0525 32.055 48.5105 31.9992 48.9946 31.9975C49.0817 31.9991 49.1687 32.0006 49.2585 32.0023C49.7365 32.0026 50.0776 31.9937 50.4616 31.6749C50.6224 31.3534 50.5751 30.9951 50.5763 30.6416C50.5769 30.5548 50.5775 30.468 50.5782 30.3786C50.5801 30.0906 50.5813 29.8027 50.5822 29.5147C50.5828 29.3674 50.5828 29.3674 50.5834 29.2171C50.5855 28.6976 50.5869 28.178 50.5878 27.6585C50.5889 27.1211 50.5922 26.5838 50.5961 26.0465C50.5986 25.6339 50.5994 25.2213 50.5998 24.8087C50.6003 24.6106 50.6014 24.4125 50.6032 24.2144C50.6056 23.9373 50.6055 23.6604 50.6048 23.3834C50.6067 23.2603 50.6067 23.2603 50.6086 23.1346C50.6054 22.7762 50.5947 22.5664 50.3735 22.277C49.9363 21.9623 49.5429 22.0113 49.019 22.0084C48.931 22.0064 48.8431 22.0044 48.7525 22.0023C48.0958 21.9974 48.0958 21.9974 47.5398 22.3249C47.2804 22.695 47.3169 23.104 47.3182 23.5378C47.3177 23.6206 47.3172 23.7035 47.3167 23.7889C47.3154 24.0627 47.3155 24.3365 47.3157 24.6103C47.3153 24.8007 47.3149 24.9912 47.3144 25.1816C47.3137 25.5807 47.3137 25.9798 47.3142 26.379C47.3148 26.8903 47.3131 27.4017 47.3109 27.913C47.3095 28.3063 47.3094 28.6996 47.3097 29.0929C47.3096 29.2814 47.3091 29.4699 47.3081 29.6584C47.3069 29.9221 47.3076 30.1857 47.3087 30.4494C47.308 30.5272 47.3072 30.605 47.3065 30.6851C47.3107 31.1298 47.3612 31.4186 47.6372 31.7723Z" fill="#BFBFBF"/>
<path d="M33.9041 15.3131C34.0369 15.3851 34.0369 15.3851 34.1723 15.4585C35.458 16.189 36.6708 17.1875 37.6051 18.3324C37.6804 18.4236 37.7558 18.5147 37.8334 18.6086C40.0729 21.3786 40.9947 24.9008 40.7001 28.429C40.3049 31.9993 38.5163 35.1686 35.7712 37.4742C35.3921 37.7745 34.9957 38.0423 34.5859 38.2985C34.5262 38.3362 34.4665 38.3739 34.405 38.4128C31.4335 40.2622 27.7675 40.8224 24.3593 40.0516C20.9581 39.2495 17.9626 37.166 16.0807 34.2079C16.013 34.1034 15.9454 33.9989 15.8757 33.8913C14.0371 30.8757 13.5641 27.151 14.3862 23.7379C14.6829 22.5734 15.1083 21.5241 15.6911 20.4751C15.7391 20.3866 15.7871 20.2981 15.8365 20.2069C16.6591 18.7592 17.7859 17.4937 19.1 16.4819C19.1831 16.4167 19.2662 16.3516 19.3518 16.2844C23.5342 13.1131 29.3334 12.7733 33.9041 15.3131Z" fill="#BFBFBF"/>
<path d="M21.0537 20.2534C21.2278 20.2523 21.2278 20.2523 21.4054 20.2513C21.5314 20.2515 21.6573 20.2518 21.7872 20.252C21.9222 20.2516 22.0573 20.2511 22.1924 20.2505C22.5582 20.2492 22.9241 20.2491 23.2899 20.2494C23.5958 20.2495 23.9018 20.249 24.2077 20.2485C24.9297 20.2475 25.6518 20.2474 26.3738 20.248C27.1175 20.2486 27.8611 20.2474 28.6048 20.2453C29.2443 20.2436 29.8839 20.243 30.5235 20.2433C30.905 20.2435 31.2865 20.2433 31.668 20.2419C32.0269 20.2407 32.3858 20.2409 32.7448 20.2421C32.9384 20.2425 33.132 20.2414 33.3256 20.2402C34.7105 20.2483 34.7105 20.2483 35.2202 20.702C35.7382 21.2832 35.7855 21.8151 35.7874 22.5573C35.7884 22.6897 35.7884 22.6897 35.7894 22.8247C35.7904 23.0111 35.7908 23.1975 35.7908 23.3839C35.7912 23.6674 35.7948 23.9507 35.7985 24.2341C35.799 24.4158 35.7994 24.5974 35.7996 24.7791C35.801 24.863 35.8024 24.947 35.8038 25.0334C35.7996 25.604 35.6867 26.0354 35.3651 26.5121C34.9268 26.929 34.6015 27.011 34.0082 27.0134C33.8875 27.0141 33.7668 27.0148 33.6424 27.0155C33.5084 27.0158 33.3744 27.016 33.2404 27.0163C33.0995 27.0169 32.9585 27.0175 32.8176 27.0182C32.3544 27.0203 31.8913 27.0213 31.4282 27.0222C31.2687 27.0226 31.1092 27.023 30.9497 27.0234C30.2003 27.0253 29.4509 27.0267 28.7015 27.0275C27.8368 27.0285 26.9721 27.031 26.1074 27.035C25.4389 27.0379 24.7703 27.0393 24.1017 27.0397C23.7025 27.0399 23.3033 27.0408 22.9041 27.0432C22.5284 27.0455 22.1527 27.0459 21.7769 27.0449C21.6393 27.0448 21.5017 27.0455 21.3641 27.0468C20.0617 27.0587 20.0617 27.0587 19.4897 26.6095C19.1687 26.1955 18.9927 25.8603 18.9855 25.3366C18.9842 25.2572 18.983 25.1779 18.9817 25.0961C18.9809 25.0106 18.9802 24.9251 18.9795 24.8369C18.9787 24.7484 18.9779 24.6599 18.9771 24.5687C18.9758 24.3811 18.9747 24.1935 18.9739 24.006C18.9723 23.7208 18.968 23.4357 18.9637 23.1506C18.9627 22.968 18.9619 22.7855 18.9612 22.6029C18.9595 22.5184 18.9578 22.4338 18.9561 22.3467C18.9585 21.655 19.1283 21.1271 19.6236 20.6318C20.0863 20.3454 20.5138 20.2544 21.0537 20.2534ZM20.7558 22.0319C20.7558 23.0925 20.7558 24.1531 20.7558 25.2459C25.1269 25.2459 29.498 25.2459 34.0016 25.2459C34.0016 24.1853 34.0016 23.1246 34.0016 22.0319C29.6305 22.0319 25.2594 22.0319 20.7558 22.0319Z" fill="#5E5E5E"/>
<path d="M27.768 27.7797C28.3105 28.0579 28.503 28.3731 28.7419 28.9058C28.8085 29.0463 28.8752 29.1867 28.9421 29.327C28.9742 29.3955 29.0063 29.4639 29.0394 29.5345C29.3282 30.1398 29.6643 30.7181 30.0203 31.2859C30.6267 32.2935 30.9323 33.345 30.6838 34.5121C30.4411 35.3599 29.9671 36.0542 29.2289 36.5453C28.3227 37.0319 27.405 37.1892 26.3984 36.9227C25.5062 36.623 24.8198 36.0737 24.3344 35.2723C23.8946 34.3682 23.9279 33.2066 24.2009 32.2538C24.4111 31.7072 24.7206 31.2314 25.0411 30.7444C25.4266 30.1509 25.7228 29.5293 26.002 28.8797C26.3475 28.1022 26.8628 27.6096 27.768 27.7797ZM27.281 30.4094C27.2541 30.4579 27.2271 30.5064 27.1993 30.5564C26.9888 30.9354 26.7782 31.3144 26.5677 31.6934C26.5249 31.7705 26.4822 31.8477 26.4382 31.9271C26.3493 32.0866 26.2597 32.2456 26.1695 32.4043C26.1259 32.4813 26.0823 32.5583 26.0373 32.6377C25.9979 32.7067 25.9585 32.7757 25.9179 32.8467C25.6853 33.3039 25.6935 33.6897 25.8262 34.1713C26.0272 34.71 26.3352 34.9273 26.8245 35.2183C27.3506 35.3406 27.8076 35.2608 28.2854 35.0174C28.652 34.7019 28.8717 34.3986 29.028 33.94C29.0473 32.9408 28.4563 32.1127 27.9628 31.2859C27.8646 31.1119 27.7671 30.9374 27.6706 30.7624C27.6324 30.6934 27.5943 30.6243 27.5549 30.5532C27.5288 30.5057 27.5027 30.4583 27.4758 30.4094C27.4115 30.4094 27.3472 30.4094 27.281 30.4094Z" fill="#5E5E5E"/>
</g>
</svg>
