<svg width="54" height="54" viewBox="0 0 54 54" fill="none" xmlns="http://www.w3.org/2000/svg">
<mask id="mask0_2515_11844" style="mask-type:alpha" maskUnits="userSpaceOnUse" x="0" y="0" width="54" height="54">
<rect width="54" height="54" fill="#D9D9D9"/>
</mask>
<g mask="url(#mask0_2515_11844)">
<mask id="path-2-inside-1_2515_11844" fill="white">
<path d="M15.7477 5.01389C15.848 5.01337 15.9483 5.01284 16.0516 5.0123C16.3863 5.01091 16.721 5.0116 17.0557 5.0123C17.2962 5.01174 17.5367 5.01106 17.7772 5.01027C18.3619 5.00871 18.9466 5.00852 19.5313 5.00903C20.0067 5.00942 20.482 5.00928 20.9574 5.00876C21.0252 5.00869 21.093 5.00861 21.1628 5.00854C21.3004 5.00839 21.4381 5.00824 21.5758 5.00809C22.8656 5.00675 24.1555 5.00728 25.4454 5.0084C26.6244 5.00937 27.8034 5.00811 28.9824 5.00577C30.1942 5.0034 31.4061 5.00246 32.618 5.00311C33.2979 5.00345 33.9777 5.00324 34.6576 5.00153C35.2969 4.99994 35.9362 5.00041 36.5755 5.00224C36.8099 5.0026 37.0443 5.0023 37.2787 5.00128C37.5992 4.99999 37.9195 5.00112 38.2399 5.00283C38.3323 5.0019 38.4247 5.00096 38.5199 5C39.5336 5.01117 40.2231 5.41852 40.9276 6.123C41.5772 6.80772 41.6575 7.52473 41.6501 8.43203C41.6204 9.30794 41.3201 9.88627 40.7259 10.5263C40.4323 10.7985 40.1155 11.0071 39.7588 11.1876C39.6927 11.2213 39.6267 11.255 39.5586 11.2897C39.1632 11.4174 38.798 11.408 38.3851 11.4045C38.2967 11.4045 38.2082 11.4045 38.1171 11.4046C37.8257 11.4044 37.5343 11.4029 37.2429 11.4014C37.0405 11.401 36.8381 11.4007 36.6357 11.4005C36.1037 11.3998 35.5716 11.3979 35.0395 11.3957C34.4008 11.3934 33.7621 11.3925 33.1234 11.3914C32.1536 11.3895 31.1838 11.3857 30.2141 11.3824C30.2141 13.6322 30.2141 15.882 30.2141 18.2C32.1794 18.1808 32.1794 18.1808 34.1448 18.1562C34.3912 18.1547 34.6376 18.1535 34.8841 18.1525C35.012 18.15 35.1399 18.1475 35.2716 18.1449C36.1472 18.1445 36.1472 18.1445 36.5775 18.3714C36.832 18.8672 36.809 19.3396 36.8042 19.8892C36.8047 20.0063 36.8052 20.1233 36.8056 20.244C36.806 20.4912 36.8051 20.7384 36.803 20.9857C36.8004 21.3641 36.803 21.7422 36.8061 22.1206C36.8058 22.3609 36.8052 22.6012 36.8042 22.8415C36.8052 22.9547 36.8062 23.0678 36.8072 23.1844C36.796 23.9543 36.796 23.9543 36.5396 24.3605C36.1816 24.5728 35.8948 24.5863 35.4917 24.5612C35.3904 24.5579 35.3904 24.5579 35.2872 24.5545C35.1219 24.5488 34.9567 24.5401 34.7916 24.5307C34.7783 25.2047 34.7735 25.8784 34.7744 26.5525C34.7737 26.7814 34.7712 27.0103 34.7666 27.2391C34.6737 28.6731 34.6737 28.6731 35.2502 29.9152C35.4755 30.1165 35.7168 30.2936 35.9604 30.4719C36.1787 30.7165 36.3677 30.9774 36.5569 31.2449C36.6024 31.3065 36.6478 31.3681 36.6947 31.4316C36.9146 31.7362 37.0367 31.9528 37.1291 32.3224C38.479 32.3224 39.8289 32.3224 41.2197 32.3224C41.2197 31.6796 41.2197 31.0368 41.2197 30.3745C41.7677 29.8265 41.7677 29.8265 42.246 29.8245C42.3516 29.8229 42.4573 29.8214 42.5661 29.8198C42.7358 29.8213 42.7358 29.8213 42.9089 29.8228C43.026 29.8224 43.143 29.8219 43.2636 29.8214C43.5109 29.8211 43.7581 29.822 44.0054 29.824C44.3838 29.8266 44.7619 29.824 45.1403 29.8209C45.3806 29.8212 45.6209 29.8219 45.8612 29.8228C46.0309 29.8213 46.0309 29.8213 46.2041 29.8198C46.6681 29.8266 46.9748 29.8358 47.3802 30.0723C47.6271 30.5106 47.6036 30.8852 47.5809 31.3789C47.5787 31.4696 47.5765 31.5603 47.5742 31.6537C47.5685 31.8768 47.5605 32.0995 47.5504 32.3224C47.6659 32.3198 47.7814 32.3173 47.9003 32.3147C48.3296 32.3058 48.7588 32.3002 49.1882 32.2956C49.3738 32.2932 49.5594 32.2899 49.745 32.2856C50.0122 32.2797 50.2793 32.277 50.5465 32.2748C50.6292 32.2723 50.7119 32.2698 50.7971 32.2672C50.8751 32.2672 50.953 32.2671 51.0334 32.2671C51.1015 32.266 51.1696 32.2649 51.2398 32.2638C51.5896 32.363 51.7201 32.5165 51.9332 32.8094C52.0049 33.153 51.9998 33.4904 51.9963 33.8404C51.9971 33.9442 51.998 34.0479 51.9988 34.1549C52.001 34.4978 51.9996 34.8405 51.9979 35.1834C51.9982 35.4217 51.9987 35.66 51.9993 35.8984C52 36.3978 51.999 36.8972 51.9967 37.3966C51.994 38.037 51.9955 38.6772 51.9985 39.3175C52.0002 39.8096 51.9997 40.3017 51.9984 40.7939C51.9981 41.03 51.9985 41.2661 51.9996 41.5022C52.0008 41.8321 51.999 42.1619 51.9963 42.4918C51.9972 42.5895 51.9982 42.6872 51.9992 42.7878C51.9924 43.2375 51.9823 43.4555 51.7116 43.8273C51.4498 44.0074 51.3436 44.07 51.0334 44.0651C50.9554 44.0651 50.8774 44.065 50.7971 44.065C50.7144 44.0625 50.6317 44.06 50.5465 44.0574C50.4607 44.0567 50.3749 44.056 50.2865 44.0553C50.0136 44.0526 49.7408 44.0465 49.4679 44.0403C49.2824 44.0378 49.097 44.0356 48.9115 44.0336C48.4577 44.0283 48.0041 44.0199 47.5504 44.0098C47.553 44.0663 47.5555 44.1228 47.5582 44.1809C47.5683 44.4384 47.5746 44.6958 47.5809 44.9534C47.585 45.0422 47.589 45.131 47.5932 45.2225C47.6008 45.6385 47.5871 45.8926 47.3802 46.26C46.8883 46.5469 46.421 46.5143 45.8612 46.5094C45.6857 46.5101 45.6857 46.5101 45.5065 46.5108C45.2593 46.5111 45.0121 46.5102 44.7648 46.5082C44.3864 46.5056 44.0083 46.5082 43.6299 46.5113C43.3896 46.511 43.1493 46.5104 42.9089 46.5094C42.7392 46.5109 42.7392 46.5109 42.5661 46.5124C42.4605 46.5109 42.3548 46.5093 42.246 46.5077C42.1534 46.5073 42.0608 46.507 41.9654 46.5066C41.7067 46.4447 41.7067 46.4447 41.2197 45.9577C41.2197 45.3149 41.2197 44.6721 41.2197 44.0098C39.8698 44.0098 38.5199 44.0098 37.1291 44.0098C37.0648 44.1705 37.0006 44.3312 36.9343 44.4968C35.1504 47.2818 32.5201 48.9653 29.3511 49.7128C26.3445 50.3389 23.0889 49.7051 20.5198 48.0438C19.946 47.6537 19.4275 47.2044 18.9162 46.7369C18.8383 46.6671 18.7605 46.5973 18.6803 46.5254C18.218 46.0893 17.8331 45.6083 17.4552 45.0994C17.4083 45.0365 17.3614 44.9735 17.3131 44.9086C17.2696 44.8484 17.2261 44.7882 17.1813 44.7262C17.1425 44.6726 17.1037 44.6191 17.0638 44.5638C16.9683 44.3994 16.9683 44.3994 16.8709 44.0098C15.521 44.0098 14.1711 44.0098 12.7803 44.0098C12.7803 44.6526 12.7803 45.2955 12.7803 45.9577C12.2323 46.5057 12.2323 46.5057 11.754 46.5077C11.6484 46.5093 11.5427 46.5108 11.4339 46.5124C11.2642 46.5109 11.2642 46.5109 11.0911 46.5094C10.9155 46.5101 10.9155 46.5101 10.7363 46.5108C10.4891 46.5111 10.2419 46.5102 9.99465 46.5082C9.61624 46.5056 9.23811 46.5082 8.85971 46.5113C8.61939 46.511 8.37908 46.5104 8.13876 46.5094C7.96906 46.5109 7.96906 46.5109 7.79594 46.5124C7.33187 46.5056 7.02517 46.4964 6.61981 46.26C6.3729 45.8217 6.39644 45.447 6.41912 44.9534C6.42132 44.8626 6.42351 44.7719 6.42578 44.6785C6.4315 44.4554 6.43949 44.2327 6.44956 44.0098C6.33409 44.0124 6.21862 44.0149 6.09966 44.0176C5.6704 44.0264 5.24115 44.032 4.81183 44.0366C4.62619 44.039 4.44056 44.0424 4.25495 44.0466C3.98778 44.0525 3.72073 44.0552 3.4535 44.0574C3.32945 44.0612 3.32945 44.0612 3.20289 44.065C3.12493 44.065 3.04697 44.0651 2.96665 44.0651C2.89852 44.0662 2.83039 44.0673 2.7602 44.0684C2.41039 43.9692 2.27995 43.8157 2.06676 43.5229C1.99515 43.1793 2.00022 42.8418 2.00375 42.4918C2.00247 42.3362 2.00247 42.3362 2.00116 42.1773C1.99902 41.8345 2.00044 41.4917 2.00208 41.1488C2.00176 40.9105 2.00128 40.6722 2.00067 40.4338C1.99995 39.9344 2.001 39.435 2.00327 38.9356C2.00605 38.2953 2.00445 37.655 2.00153 37.0147C1.99977 36.5226 2.00033 36.0305 2.00159 35.5384C2.00192 35.3023 2.00152 35.0662 2.00039 34.8301C1.99915 34.5001 2.00103 34.1703 2.00375 33.8404C2.00276 33.7427 2.00178 33.6451 2.00076 33.5444C2.00761 33.0948 2.01771 32.8767 2.28838 32.5049C2.5502 32.3248 2.65642 32.2622 2.96665 32.2671C3.04461 32.2671 3.12257 32.2672 3.20289 32.2672C3.32694 32.271 3.32694 32.271 3.4535 32.2748C3.53929 32.2755 3.62507 32.2762 3.71345 32.2769C3.98641 32.2796 4.25918 32.2857 4.53208 32.2919C4.71755 32.2944 4.90302 32.2966 5.08849 32.2986C5.54226 32.304 5.99587 32.3124 6.44956 32.3224C6.44701 32.2659 6.44446 32.2095 6.44183 32.1513C6.43166 31.8938 6.42536 31.6364 6.41912 31.3789C6.413 31.2456 6.413 31.2456 6.40675 31.1097C6.39919 30.6938 6.41285 30.4396 6.61981 30.0723C7.1117 29.7853 7.57895 29.8179 8.13876 29.8228C8.25581 29.8224 8.37287 29.8219 8.49347 29.8214C8.7407 29.8211 8.98794 29.822 9.23517 29.824C9.61358 29.8266 9.9917 29.824 10.3701 29.8209C10.6104 29.8212 10.8507 29.8219 11.0911 29.8228C11.2042 29.8218 11.3173 29.8208 11.4339 29.8198C11.5923 29.8221 11.5923 29.8221 11.754 29.8245C11.8466 29.8249 11.9392 29.8253 12.0346 29.8257C12.2933 29.8875 12.2933 29.8875 12.7803 30.3745C12.7803 31.0173 12.7803 31.6601 12.7803 32.3224C14.1302 32.3224 15.4801 32.3224 16.8709 32.3224C16.9352 32.1617 16.9994 32.001 17.0657 31.8354C17.5802 31.0322 18.2037 30.2401 18.9255 29.6127C19.1489 29.3571 19.1608 29.244 19.1641 28.9093C19.1661 28.8118 19.168 28.7143 19.17 28.6139C19.1701 28.5094 19.1702 28.4049 19.1703 28.2972C19.1719 28.1897 19.1735 28.0821 19.1752 27.9713C19.1799 27.628 19.182 27.2847 19.184 26.9413C19.1868 26.7084 19.1897 26.4756 19.1928 26.2428C19.2 25.6721 19.205 25.1014 19.2084 24.5307C19.0586 24.5392 19.0586 24.5392 18.9059 24.5479C18.7734 24.5524 18.6409 24.5569 18.5083 24.5612C18.4427 24.5653 18.3771 24.5693 18.3095 24.5735C17.9638 24.582 17.7584 24.5373 17.4604 24.3605C17.1518 23.8717 17.1908 23.4084 17.1958 22.8415C17.1953 22.7245 17.1948 22.6074 17.1944 22.4868C17.194 22.2396 17.1949 21.9924 17.197 21.7451C17.1996 21.3667 17.197 20.9886 17.1939 20.6102C17.1942 20.3699 17.1948 20.1296 17.1958 19.8892C17.1948 19.7761 17.1938 19.663 17.1928 19.5464C17.1993 19.0968 17.2156 18.7745 17.4225 18.3714C17.9638 18.086 18.5143 18.1408 19.1159 18.1525C19.2932 18.1532 19.2932 18.1532 19.4741 18.154C19.9152 18.1565 20.3561 18.1633 20.7971 18.1696C21.7834 18.1796 22.7697 18.1897 23.7859 18.2C23.7859 15.9502 23.7859 13.7004 23.7859 11.3824C23.1423 11.3869 22.4986 11.3914 21.8354 11.3961C21.4266 11.398 21.0178 11.3999 20.609 11.4014C19.9607 11.4037 19.3125 11.4064 18.6642 11.4117C18.1413 11.416 17.6184 11.4183 17.0955 11.4193C16.8965 11.42 16.6974 11.4214 16.4983 11.4235C16.2186 11.4264 15.9389 11.4268 15.6592 11.4266C15.5776 11.428 15.4961 11.4294 15.4121 11.4308C14.4354 11.4241 13.7474 10.9859 13.0724 10.311C12.4228 9.62628 12.3425 8.90927 12.3499 8.00198C12.3873 6.89807 12.9193 6.24835 13.6994 5.50819C14.3646 5.07014 14.9729 5.009 15.7477 5.01389ZM14.6369 7.44393C14.402 7.76308 14.3648 8.0521 14.3892 8.44261C14.4737 8.8267 14.6249 8.97962 14.923 9.23966C15.4697 9.44287 15.9682 9.4621 16.5473 9.45918C16.6405 9.45949 16.7337 9.45979 16.8297 9.4601C17.1409 9.46088 17.4522 9.46026 17.7634 9.45965C17.9869 9.45991 18.2105 9.46026 18.434 9.46069C19.0405 9.46157 19.647 9.46123 20.2535 9.46061C20.8883 9.46012 21.5231 9.46058 22.1579 9.46088C23.2921 9.46126 24.4264 9.46065 25.5607 9.45966C26.5885 9.45879 27.6163 9.45894 28.6441 9.45984C29.8386 9.46088 31.033 9.46127 32.2274 9.4607C32.8594 9.46039 33.4914 9.46035 34.1233 9.46099C34.7174 9.46156 35.3116 9.46117 35.9057 9.46004C36.1237 9.45978 36.3417 9.45986 36.5597 9.46029C36.8574 9.46082 37.155 9.46015 37.4527 9.45918C37.5389 9.45962 37.6251 9.46005 37.7139 9.4605C38.3488 9.45648 38.8667 9.42314 39.3631 8.99008C39.598 8.67092 39.6352 8.38191 39.6108 7.99139C39.5263 7.60731 39.3751 7.45439 39.077 7.19435C38.5303 6.99114 38.0318 6.97191 37.4527 6.97482C37.3595 6.97452 37.2663 6.97422 37.1703 6.9739C36.8591 6.97313 36.5478 6.97374 36.2366 6.97435C36.0131 6.97409 35.7895 6.97374 35.566 6.97332C34.9595 6.97243 34.353 6.97278 33.7465 6.97339C33.1117 6.97389 32.4769 6.97343 31.8421 6.97312C30.7079 6.97275 29.5736 6.97335 28.4393 6.97434C27.4115 6.97521 26.3837 6.97506 25.3559 6.97416C24.1614 6.97312 22.967 6.97273 21.7726 6.97331C21.1406 6.97361 20.5086 6.97365 19.8767 6.97301C19.2826 6.97245 18.6884 6.97284 18.0943 6.97396C17.8763 6.97422 17.6583 6.97415 17.4403 6.97372C17.1426 6.97319 16.845 6.97385 16.5473 6.97482C16.418 6.97417 16.418 6.97417 16.2861 6.97351C15.6512 6.97752 15.1333 7.01087 14.6369 7.44393ZM25.8313 11.3824C25.8313 13.6322 25.8313 15.882 25.8313 18.2C26.6026 18.2 27.374 18.2 28.1687 18.2C28.1687 15.9502 28.1687 13.7004 28.1687 11.3824C27.3974 11.3824 26.626 11.3824 25.8313 11.3824ZM8.39747 31.8354C8.39747 33.6031 8.39747 35.3709 8.39747 37.1922C9.20098 37.1922 10.0045 37.1922 10.8324 37.1922C10.8324 35.4244 10.8324 33.6567 10.8324 31.8354C10.0288 31.8354 9.22533 31.8354 8.39747 31.8354ZM43.1676 31.8354C43.1676 33.6031 43.1676 35.3709 43.1676 37.1922C43.9712 37.1922 44.7747 37.1922 45.6025 37.1922C45.6025 35.4244 45.6025 33.6567 45.6025 31.8354C44.799 31.8354 43.9955 31.8354 43.1676 31.8354ZM4.01467 34.2703C4.01467 36.8415 4.01467 39.4128 4.01467 42.0619C4.81818 42.0619 5.62169 42.0619 6.44956 42.0619C6.44956 39.4907 6.44956 36.9194 6.44956 34.2703C5.64604 34.2703 4.84253 34.2703 4.01467 34.2703ZM47.5504 34.2703C47.5504 36.8415 47.5504 39.4128 47.5504 42.0619C48.354 42.0619 49.1575 42.0619 49.9853 42.0619C49.9853 39.4907 49.9853 36.9194 49.9853 34.2703C49.1818 34.2703 48.3783 34.2703 47.5504 34.2703ZM8.39747 39.1401C8.39747 40.9078 8.39747 42.6755 8.39747 44.4968C9.20098 44.4968 10.0045 44.4968 10.8324 44.4968C10.8324 42.7291 10.8324 40.9614 10.8324 39.1401C10.0288 39.1401 9.22533 39.1401 8.39747 39.1401ZM43.1676 39.1401C43.1676 40.9078 43.1676 42.6755 43.1676 44.4968C43.9712 44.4968 44.7747 44.4968 45.6025 44.4968C45.6025 42.7291 45.6025 40.9614 45.6025 39.1401C44.799 39.1401 43.9955 39.1401 43.1676 39.1401Z"/>
</mask>
<path d="M15.7477 5.01389C15.848 5.01337 15.9483 5.01284 16.0516 5.0123C16.3863 5.01091 16.721 5.0116 17.0557 5.0123C17.2962 5.01174 17.5367 5.01106 17.7772 5.01027C18.3619 5.00871 18.9466 5.00852 19.5313 5.00903C20.0067 5.00942 20.482 5.00928 20.9574 5.00876C21.0252 5.00869 21.093 5.00861 21.1628 5.00854C21.3004 5.00839 21.4381 5.00824 21.5758 5.00809C22.8656 5.00675 24.1555 5.00728 25.4454 5.0084C26.6244 5.00937 27.8034 5.00811 28.9824 5.00577C30.1942 5.0034 31.4061 5.00246 32.618 5.00311C33.2979 5.00345 33.9777 5.00324 34.6576 5.00153C35.2969 4.99994 35.9362 5.00041 36.5755 5.00224C36.8099 5.0026 37.0443 5.0023 37.2787 5.00128C37.5992 4.99999 37.9195 5.00112 38.2399 5.00283C38.3323 5.0019 38.4247 5.00096 38.5199 5C39.5336 5.01117 40.2231 5.41852 40.9276 6.123C41.5772 6.80772 41.6575 7.52473 41.6501 8.43203C41.6204 9.30794 41.3201 9.88627 40.7259 10.5263C40.4323 10.7985 40.1155 11.0071 39.7588 11.1876C39.6927 11.2213 39.6267 11.255 39.5586 11.2897C39.1632 11.4174 38.798 11.408 38.3851 11.4045C38.2967 11.4045 38.2082 11.4045 38.1171 11.4046C37.8257 11.4044 37.5343 11.4029 37.2429 11.4014C37.0405 11.401 36.8381 11.4007 36.6357 11.4005C36.1037 11.3998 35.5716 11.3979 35.0395 11.3957C34.4008 11.3934 33.7621 11.3925 33.1234 11.3914C32.1536 11.3895 31.1838 11.3857 30.2141 11.3824C30.2141 13.6322 30.2141 15.882 30.2141 18.2C32.1794 18.1808 32.1794 18.1808 34.1448 18.1562C34.3912 18.1547 34.6376 18.1535 34.8841 18.1525C35.012 18.15 35.1399 18.1475 35.2716 18.1449C36.1472 18.1445 36.1472 18.1445 36.5775 18.3714C36.832 18.8672 36.809 19.3396 36.8042 19.8892C36.8047 20.0063 36.8052 20.1233 36.8056 20.244C36.806 20.4912 36.8051 20.7384 36.803 20.9857C36.8004 21.3641 36.803 21.7422 36.8061 22.1206C36.8058 22.3609 36.8052 22.6012 36.8042 22.8415C36.8052 22.9547 36.8062 23.0678 36.8072 23.1844C36.796 23.9543 36.796 23.9543 36.5396 24.3605C36.1816 24.5728 35.8948 24.5863 35.4917 24.5612C35.3904 24.5579 35.3904 24.5579 35.2872 24.5545C35.1219 24.5488 34.9567 24.5401 34.7916 24.5307C34.7783 25.2047 34.7735 25.8784 34.7744 26.5525C34.7737 26.7814 34.7712 27.0103 34.7666 27.2391C34.6737 28.6731 34.6737 28.6731 35.2502 29.9152C35.4755 30.1165 35.7168 30.2936 35.9604 30.4719C36.1787 30.7165 36.3677 30.9774 36.5569 31.2449C36.6024 31.3065 36.6478 31.3681 36.6947 31.4316C36.9146 31.7362 37.0367 31.9528 37.1291 32.3224C38.479 32.3224 39.8289 32.3224 41.2197 32.3224C41.2197 31.6796 41.2197 31.0368 41.2197 30.3745C41.7677 29.8265 41.7677 29.8265 42.246 29.8245C42.3516 29.8229 42.4573 29.8214 42.5661 29.8198C42.7358 29.8213 42.7358 29.8213 42.9089 29.8228C43.026 29.8224 43.143 29.8219 43.2636 29.8214C43.5109 29.8211 43.7581 29.822 44.0054 29.824C44.3838 29.8266 44.7619 29.824 45.1403 29.8209C45.3806 29.8212 45.6209 29.8219 45.8612 29.8228C46.0309 29.8213 46.0309 29.8213 46.2041 29.8198C46.6681 29.8266 46.9748 29.8358 47.3802 30.0723C47.6271 30.5106 47.6036 30.8852 47.5809 31.3789C47.5787 31.4696 47.5765 31.5603 47.5742 31.6537C47.5685 31.8768 47.5605 32.0995 47.5504 32.3224C47.6659 32.3198 47.7814 32.3173 47.9003 32.3147C48.3296 32.3058 48.7588 32.3002 49.1882 32.2956C49.3738 32.2932 49.5594 32.2899 49.745 32.2856C50.0122 32.2797 50.2793 32.277 50.5465 32.2748C50.6292 32.2723 50.7119 32.2698 50.7971 32.2672C50.8751 32.2672 50.953 32.2671 51.0334 32.2671C51.1015 32.266 51.1696 32.2649 51.2398 32.2638C51.5896 32.363 51.7201 32.5165 51.9332 32.8094C52.0049 33.153 51.9998 33.4904 51.9963 33.8404C51.9971 33.9442 51.998 34.0479 51.9988 34.1549C52.001 34.4978 51.9996 34.8405 51.9979 35.1834C51.9982 35.4217 51.9987 35.66 51.9993 35.8984C52 36.3978 51.999 36.8972 51.9967 37.3966C51.994 38.037 51.9955 38.6772 51.9985 39.3175C52.0002 39.8096 51.9997 40.3017 51.9984 40.7939C51.9981 41.03 51.9985 41.2661 51.9996 41.5022C52.0008 41.8321 51.999 42.1619 51.9963 42.4918C51.9972 42.5895 51.9982 42.6872 51.9992 42.7878C51.9924 43.2375 51.9823 43.4555 51.7116 43.8273C51.4498 44.0074 51.3436 44.07 51.0334 44.0651C50.9554 44.0651 50.8774 44.065 50.7971 44.065C50.7144 44.0625 50.6317 44.06 50.5465 44.0574C50.4607 44.0567 50.3749 44.056 50.2865 44.0553C50.0136 44.0526 49.7408 44.0465 49.4679 44.0403C49.2824 44.0378 49.097 44.0356 48.9115 44.0336C48.4577 44.0283 48.0041 44.0199 47.5504 44.0098C47.553 44.0663 47.5555 44.1228 47.5582 44.1809C47.5683 44.4384 47.5746 44.6958 47.5809 44.9534C47.585 45.0422 47.589 45.131 47.5932 45.2225C47.6008 45.6385 47.5871 45.8926 47.3802 46.26C46.8883 46.5469 46.421 46.5143 45.8612 46.5094C45.6857 46.5101 45.6857 46.5101 45.5065 46.5108C45.2593 46.5111 45.0121 46.5102 44.7648 46.5082C44.3864 46.5056 44.0083 46.5082 43.6299 46.5113C43.3896 46.511 43.1493 46.5104 42.9089 46.5094C42.7392 46.5109 42.7392 46.5109 42.5661 46.5124C42.4605 46.5109 42.3548 46.5093 42.246 46.5077C42.1534 46.5073 42.0608 46.507 41.9654 46.5066C41.7067 46.4447 41.7067 46.4447 41.2197 45.9577C41.2197 45.3149 41.2197 44.6721 41.2197 44.0098C39.8698 44.0098 38.5199 44.0098 37.1291 44.0098C37.0648 44.1705 37.0006 44.3312 36.9343 44.4968C35.1504 47.2818 32.5201 48.9653 29.3511 49.7128C26.3445 50.3389 23.0889 49.7051 20.5198 48.0438C19.946 47.6537 19.4275 47.2044 18.9162 46.7369C18.8383 46.6671 18.7605 46.5973 18.6803 46.5254C18.218 46.0893 17.8331 45.6083 17.4552 45.0994C17.4083 45.0365 17.3614 44.9735 17.3131 44.9086C17.2696 44.8484 17.2261 44.7882 17.1813 44.7262C17.1425 44.6726 17.1037 44.6191 17.0638 44.5638C16.9683 44.3994 16.9683 44.3994 16.8709 44.0098C15.521 44.0098 14.1711 44.0098 12.7803 44.0098C12.7803 44.6526 12.7803 45.2955 12.7803 45.9577C12.2323 46.5057 12.2323 46.5057 11.754 46.5077C11.6484 46.5093 11.5427 46.5108 11.4339 46.5124C11.2642 46.5109 11.2642 46.5109 11.0911 46.5094C10.9155 46.5101 10.9155 46.5101 10.7363 46.5108C10.4891 46.5111 10.2419 46.5102 9.99465 46.5082C9.61624 46.5056 9.23811 46.5082 8.85971 46.5113C8.61939 46.511 8.37908 46.5104 8.13876 46.5094C7.96906 46.5109 7.96906 46.5109 7.79594 46.5124C7.33187 46.5056 7.02517 46.4964 6.61981 46.26C6.3729 45.8217 6.39644 45.447 6.41912 44.9534C6.42132 44.8626 6.42351 44.7719 6.42578 44.6785C6.4315 44.4554 6.43949 44.2327 6.44956 44.0098C6.33409 44.0124 6.21862 44.0149 6.09966 44.0176C5.6704 44.0264 5.24115 44.032 4.81183 44.0366C4.62619 44.039 4.44056 44.0424 4.25495 44.0466C3.98778 44.0525 3.72073 44.0552 3.4535 44.0574C3.32945 44.0612 3.32945 44.0612 3.20289 44.065C3.12493 44.065 3.04697 44.0651 2.96665 44.0651C2.89852 44.0662 2.83039 44.0673 2.7602 44.0684C2.41039 43.9692 2.27995 43.8157 2.06676 43.5229C1.99515 43.1793 2.00022 42.8418 2.00375 42.4918C2.00247 42.3362 2.00247 42.3362 2.00116 42.1773C1.99902 41.8345 2.00044 41.4917 2.00208 41.1488C2.00176 40.9105 2.00128 40.6722 2.00067 40.4338C1.99995 39.9344 2.001 39.435 2.00327 38.9356C2.00605 38.2953 2.00445 37.655 2.00153 37.0147C1.99977 36.5226 2.00033 36.0305 2.00159 35.5384C2.00192 35.3023 2.00152 35.0662 2.00039 34.8301C1.99915 34.5001 2.00103 34.1703 2.00375 33.8404C2.00276 33.7427 2.00178 33.6451 2.00076 33.5444C2.00761 33.0948 2.01771 32.8767 2.28838 32.5049C2.5502 32.3248 2.65642 32.2622 2.96665 32.2671C3.04461 32.2671 3.12257 32.2672 3.20289 32.2672C3.32694 32.271 3.32694 32.271 3.4535 32.2748C3.53929 32.2755 3.62507 32.2762 3.71345 32.2769C3.98641 32.2796 4.25918 32.2857 4.53208 32.2919C4.71755 32.2944 4.90302 32.2966 5.08849 32.2986C5.54226 32.304 5.99587 32.3124 6.44956 32.3224C6.44701 32.2659 6.44446 32.2095 6.44183 32.1513C6.43166 31.8938 6.42536 31.6364 6.41912 31.3789C6.413 31.2456 6.413 31.2456 6.40675 31.1097C6.39919 30.6938 6.41285 30.4396 6.61981 30.0723C7.1117 29.7853 7.57895 29.8179 8.13876 29.8228C8.25581 29.8224 8.37287 29.8219 8.49347 29.8214C8.7407 29.8211 8.98794 29.822 9.23517 29.824C9.61358 29.8266 9.9917 29.824 10.3701 29.8209C10.6104 29.8212 10.8507 29.8219 11.0911 29.8228C11.2042 29.8218 11.3173 29.8208 11.4339 29.8198C11.5923 29.8221 11.5923 29.8221 11.754 29.8245C11.8466 29.8249 11.9392 29.8253 12.0346 29.8257C12.2933 29.8875 12.2933 29.8875 12.7803 30.3745C12.7803 31.0173 12.7803 31.6601 12.7803 32.3224C14.1302 32.3224 15.4801 32.3224 16.8709 32.3224C16.9352 32.1617 16.9994 32.001 17.0657 31.8354C17.5802 31.0322 18.2037 30.2401 18.9255 29.6127C19.1489 29.3571 19.1608 29.244 19.1641 28.9093C19.1661 28.8118 19.168 28.7143 19.17 28.6139C19.1701 28.5094 19.1702 28.4049 19.1703 28.2972C19.1719 28.1897 19.1735 28.0821 19.1752 27.9713C19.1799 27.628 19.182 27.2847 19.184 26.9413C19.1868 26.7084 19.1897 26.4756 19.1928 26.2428C19.2 25.6721 19.205 25.1014 19.2084 24.5307C19.0586 24.5392 19.0586 24.5392 18.9059 24.5479C18.7734 24.5524 18.6409 24.5569 18.5083 24.5612C18.4427 24.5653 18.3771 24.5693 18.3095 24.5735C17.9638 24.582 17.7584 24.5373 17.4604 24.3605C17.1518 23.8717 17.1908 23.4084 17.1958 22.8415C17.1953 22.7245 17.1948 22.6074 17.1944 22.4868C17.194 22.2396 17.1949 21.9924 17.197 21.7451C17.1996 21.3667 17.197 20.9886 17.1939 20.6102C17.1942 20.3699 17.1948 20.1296 17.1958 19.8892C17.1948 19.7761 17.1938 19.663 17.1928 19.5464C17.1993 19.0968 17.2156 18.7745 17.4225 18.3714C17.9638 18.086 18.5143 18.1408 19.1159 18.1525C19.2932 18.1532 19.2932 18.1532 19.4741 18.154C19.9152 18.1565 20.3561 18.1633 20.7971 18.1696C21.7834 18.1796 22.7697 18.1897 23.7859 18.2C23.7859 15.9502 23.7859 13.7004 23.7859 11.3824C23.1423 11.3869 22.4986 11.3914 21.8354 11.3961C21.4266 11.398 21.0178 11.3999 20.609 11.4014C19.9607 11.4037 19.3125 11.4064 18.6642 11.4117C18.1413 11.416 17.6184 11.4183 17.0955 11.4193C16.8965 11.42 16.6974 11.4214 16.4983 11.4235C16.2186 11.4264 15.9389 11.4268 15.6592 11.4266C15.5776 11.428 15.4961 11.4294 15.4121 11.4308C14.4354 11.4241 13.7474 10.9859 13.0724 10.311C12.4228 9.62628 12.3425 8.90927 12.3499 8.00198C12.3873 6.89807 12.9193 6.24835 13.6994 5.50819C14.3646 5.07014 14.9729 5.009 15.7477 5.01389ZM14.6369 7.44393C14.402 7.76308 14.3648 8.0521 14.3892 8.44261C14.4737 8.8267 14.6249 8.97962 14.923 9.23966C15.4697 9.44287 15.9682 9.4621 16.5473 9.45918C16.6405 9.45949 16.7337 9.45979 16.8297 9.4601C17.1409 9.46088 17.4522 9.46026 17.7634 9.45965C17.9869 9.45991 18.2105 9.46026 18.434 9.46069C19.0405 9.46157 19.647 9.46123 20.2535 9.46061C20.8883 9.46012 21.5231 9.46058 22.1579 9.46088C23.2921 9.46126 24.4264 9.46065 25.5607 9.45966C26.5885 9.45879 27.6163 9.45894 28.6441 9.45984C29.8386 9.46088 31.033 9.46127 32.2274 9.4607C32.8594 9.46039 33.4914 9.46035 34.1233 9.46099C34.7174 9.46156 35.3116 9.46117 35.9057 9.46004C36.1237 9.45978 36.3417 9.45986 36.5597 9.46029C36.8574 9.46082 37.155 9.46015 37.4527 9.45918C37.5389 9.45962 37.6251 9.46005 37.7139 9.4605C38.3488 9.45648 38.8667 9.42314 39.3631 8.99008C39.598 8.67092 39.6352 8.38191 39.6108 7.99139C39.5263 7.60731 39.3751 7.45439 39.077 7.19435C38.5303 6.99114 38.0318 6.97191 37.4527 6.97482C37.3595 6.97452 37.2663 6.97422 37.1703 6.9739C36.8591 6.97313 36.5478 6.97374 36.2366 6.97435C36.0131 6.97409 35.7895 6.97374 35.566 6.97332C34.9595 6.97243 34.353 6.97278 33.7465 6.97339C33.1117 6.97389 32.4769 6.97343 31.8421 6.97312C30.7079 6.97275 29.5736 6.97335 28.4393 6.97434C27.4115 6.97521 26.3837 6.97506 25.3559 6.97416C24.1614 6.97312 22.967 6.97273 21.7726 6.97331C21.1406 6.97361 20.5086 6.97365 19.8767 6.97301C19.2826 6.97245 18.6884 6.97284 18.0943 6.97396C17.8763 6.97422 17.6583 6.97415 17.4403 6.97372C17.1426 6.97319 16.845 6.97385 16.5473 6.97482C16.418 6.97417 16.418 6.97417 16.2861 6.97351C15.6512 6.97752 15.1333 7.01087 14.6369 7.44393ZM25.8313 11.3824C25.8313 13.6322 25.8313 15.882 25.8313 18.2C26.6026 18.2 27.374 18.2 28.1687 18.2C28.1687 15.9502 28.1687 13.7004 28.1687 11.3824C27.3974 11.3824 26.626 11.3824 25.8313 11.3824ZM8.39747 31.8354C8.39747 33.6031 8.39747 35.3709 8.39747 37.1922C9.20098 37.1922 10.0045 37.1922 10.8324 37.1922C10.8324 35.4244 10.8324 33.6567 10.8324 31.8354C10.0288 31.8354 9.22533 31.8354 8.39747 31.8354ZM43.1676 31.8354C43.1676 33.6031 43.1676 35.3709 43.1676 37.1922C43.9712 37.1922 44.7747 37.1922 45.6025 37.1922C45.6025 35.4244 45.6025 33.6567 45.6025 31.8354C44.799 31.8354 43.9955 31.8354 43.1676 31.8354ZM4.01467 34.2703C4.01467 36.8415 4.01467 39.4128 4.01467 42.0619C4.81818 42.0619 5.62169 42.0619 6.44956 42.0619C6.44956 39.4907 6.44956 36.9194 6.44956 34.2703C5.64604 34.2703 4.84253 34.2703 4.01467 34.2703ZM47.5504 34.2703C47.5504 36.8415 47.5504 39.4128 47.5504 42.0619C48.354 42.0619 49.1575 42.0619 49.9853 42.0619C49.9853 39.4907 49.9853 36.9194 49.9853 34.2703C49.1818 34.2703 48.3783 34.2703 47.5504 34.2703ZM8.39747 39.1401C8.39747 40.9078 8.39747 42.6755 8.39747 44.4968C9.20098 44.4968 10.0045 44.4968 10.8324 44.4968C10.8324 42.7291 10.8324 40.9614 10.8324 39.1401C10.0288 39.1401 9.22533 39.1401 8.39747 39.1401ZM43.1676 39.1401C43.1676 40.9078 43.1676 42.6755 43.1676 44.4968C43.9712 44.4968 44.7747 44.4968 45.6025 44.4968C45.6025 42.7291 45.6025 40.9614 45.6025 39.1401C44.799 39.1401 43.9955 39.1401 43.1676 39.1401Z" fill="#BFBFBF" stroke="black" stroke-width="0.6" mask="url(#path-2-inside-1_2515_11844)"/>
</g>
</svg>
